<?xml version="1.0" encoding="UTF-8" standalone="no"?>
<svg xmlns:dc="http://purl.org/dc/elements/1.1/" xmlns:cc="http://creativecommons.org/ns#" xmlns:rdf="http://www.w3.org/1999/02/22-rdf-syntax-ns#" xmlns:svg="http://www.w3.org/2000/svg" xmlns="http://www.w3.org/2000/svg" width="256" height="256" viewBox="0 0 256 256" version="1.1">
	<defs>
		<style>
			path, rect, circle {
			vector-effect: non-scaling-stroke;
			fill:#FAFAFA;
			stroke:#f57f17;
			stroke-linecap:round;
			stroke-width:1;
			}
		</style>
		<clipPath clipPathUnits="userSpaceOnUse" id="cp">
			<rect width="4" height="4" x="0" y="0" />
		</clipPath>
		<pattern patternUnits="userSpaceOnUse" width="4" height="4" id="pat">
			<path d="M 3,5 5,3 m -6,2 6,-6 m -6,2 2,-2" clip-path="url(#cp)" />
		</pattern>
	</defs>
	<g id="layer1">
		<rect style="stroke:none;" width="208" height="128" x="8" y="40" ry="4" />
		<rect style="stroke:none;fill:url(#pat)" width="208" height="64" x="8" y="104" ry="4" />
		<rect style="stroke:none;" width="208" height="88" x="8" y="64" />

		<path style="fill:none" d="M 8,152 h 208" />

		<rect style="fill:none;" width="208" height="128" x="8" y="40" ry="4" />

		<rect style="stroke:none;" width="80" height="152" x="168" y="96" ry="4" />
		<rect style="stroke:none;fill:url(#pat)" width="80" height="152" x="168" y="96" ry="4" />
		<rect style="stroke:none;" width="80" height="128" x="168" y="104" />

		<path style="fill:none" d="M 168,104 h 80" />
		<path style="fill:none" d="M 168,232 h 80" />

		<rect style="fill:none;" width="80" height="152" x="168" y="96" ry="4" />
	</g>
</svg>
