<?xml version="1.0" encoding="UTF-8" standalone="no"?>
<svg xmlns:dc="http://purl.org/dc/elements/1.1/" xmlns:cc="http://creativecommons.org/ns#" xmlns:rdf="http://www.w3.org/1999/02/22-rdf-syntax-ns#" xmlns:svg="http://www.w3.org/2000/svg" xmlns="http://www.w3.org/2000/svg" version="1.1" viewBox="0 0 640 480" height="480" width="640">
   <defs>
      <g id="preview">
         <rect ry="8" y="5" x="5" height="470" width="630" id="main" />
         <path d="M 5,25 H 635" />
         <path d="M 350,25 V 475" />
         <path d="M 320,25 V 475" />
         <path d="M 35,25 V 475" />
         <rect y="30" x="40" height="440" width="275" class="filled" />
         <rect y="30" x="355" height="440" width="275" class="filled" />
         <circle r="10" cy="40" cx="20" />
         <circle r="10" cy="70" cx="20" />
         <circle r="10" cy="460" cx="20" />
         <circle r="10" cy="460" cx="335" />
         <circle r="10" cy="40" cx="335" />
         <circle r="10" cy="70" cx="335" />
         <circle r="10" cy="100" cx="335" />
         <rect y="115" x="320" height="330" width="30" class="filled" />
         <rect y="85" x="5" height="360" width="30" class="filled" />
         <rect y="5" x="15" height="20" width="20" />
         <rect y="5" x="35" height="20" width="20" />
         <rect y="5" x="555" height="20" width="70" />
         <rect y="5" x="65" height="20" width="480" />
      </g>
      <clipPath id="clip" clipPathUnits="userSpaceOnUse">
         <rect y="0" x="0" height="9" width="9" />
      </clipPath>
      <pattern id="pattern" height="9" width="9" patternUnits="userSpaceOnUse">
         <path d="M -1 1 L 1 -1 M -1 9 L 9 -1 M 8 9 L 9 8" clip-path="url(#clip)" />
      </pattern>
      <style>#main { fill: #fafafa } rect, path, circle { vector-effect: non-scaling-stroke; stroke:#b3e5fc; stroke-width:1px; fill: none; } .filled { fill: url(#pattern); }</style>
   </defs>
   <object type="image/svg+xml" width="480" height="640" data="#preview"></object>
</svg>
