<?xml version="1.0" encoding="UTF-8" standalone="no"?>
<svg xmlns:dc="http://purl.org/dc/elements/1.1/" xmlns:cc="http://creativecommons.org/ns#" xmlns:rdf="http://www.w3.org/1999/02/22-rdf-syntax-ns#" xmlns:svg="http://www.w3.org/2000/svg" xmlns="http://www.w3.org/2000/svg" width="256" height="256" viewBox="0 0 256 256" version="1.1">
	<defs>
		<style>
			path, rect, circle {
			vector-effect: non-scaling-stroke;
				fill:#FAFAFA;
				stroke:#33691e;
				stroke-linecap:round;
				stroke-width:1;
			}
			@media screen and (prefers-color-scheme: dark) {
				path, rect, circle {
					fill:#212121;
					stroke:#c5e1a5;
				}
			}
		</style>
		<clipPath clipPathUnits="userSpaceOnUse" id="cp">
			<rect width="4" height="4" x="0" y="0" />
		</clipPath>
		<pattern patternUnits="userSpaceOnUse" width="4" height="4" id="pat">
			<path d="M 3,5 5,3 m -6,2 6,-6 m -6,2 2,-2" clip-path="url(#cp)" />
		</pattern>
	</defs>
	<g id="layer1">
		<rect style="stroke:none;" width="240" height="240" x="8" y="8" ry="4" />
		<rect style="fill:url(#pat);stroke:none;" width="240" height="240" x="8" y="8" ry="4" />
		<rect style="stroke:none;" width="240" height="112" x="8" y="72" />

		<path style="fill:url(#pat);" d="m 49.917279,159.64672 c -2.14994,-0.37614 -4.82763,-1.40035 -6.5891,-2.52033 -1.56178,-0.99301 -4.44681,-4.33579 -5.75969,-6.3234 -0.42064,-0.63683 -0.76053,-1.29171 -1.12927,-1.5247 -0.36874,-0.233 -1.10526,-0.0441 -1.85586,-0.14733 -3.20686,-0.44106 -5.15658,-2.59522 -5.15382,-5.69418 0.003,-2.38365 0.59001,-3.98585 1.87712,-5.11596 1.60193,-1.40652 3.49974,-1.69402 5.45958,-0.82709 1.78697,0.79047 2.62747,2.24764 2.75967,4.78449 l 0.0873,1.67649 -3.36663,0.0988 c -2.68032,0.0787 -3.36662,0.20187 -3.36662,0.60427 0,0.278 0.32854,0.83397 0.73007,1.23551 0.60965,0.60965 1.84848,0.91274 3.31298,0.65297 0.79252,-0.14057 2.03029,-0.39744 2.82283,-0.53801 l 0.0271,2.28991 -2.76148,0.89314 2.25726,2.37257 c 3.86948,4.06715 8.35371,5.80951 13.63836,5.76722 5.23339,-0.0419 9.90546,-2.11058 13.55282,-6.00092 1.092,-1.16473 2.23986,-2.55739 2.23986,-2.70605 0,-0.14868 -0.79585,0.19721 -1.4576,0.37993 -1.6058,0.44337 -2.94929,-0.012 -4.17638,-1.23909 -0.9579,-0.95791 -1.79056,-2.9319 -1.79056,-4.51996 0,-1.58804 0.42015,-3.7792 1.37806,-4.7371 1.15663,-1.15664 2.9388,-1.74186 4.67498,-1.42789 0.89929,0.16264 1.75009,0.70837 2.81044,1.80275 l 1.3408,1.92933 -0.0671,-3.08449 c -0.0327,-1.50435 -0.56186,-3.66279 -0.94681,-4.8094 -1.38347,-4.12075 -4.30928,-7.83088 -7.99066,-10.13274 -1.4683,-0.91808 -1.8756,-1.01523 -3.62559,-0.8648 -1.08431,0.0932 -2.63186,0.0167 -3.43898,-0.16996 -1.37595,-0.31824 -1.46736,-0.29323 -1.46523,0.4008 10e-4,0.40711 -0.21721,1.07553 0.41845,1.32632 0.84783,0.33448 1.44586,1.4819 0.95818,2.02055 10e-4,0.2968 0.54023,0.72943 1.21081,0.97191 0.93643,0.33862 1.20853,0.62877 1.20853,1.28873 0,1.0994 -0.81518,1.39939 -1.88963,0.69538 -1.30048,-0.85211 -1.57915,-0.67815 -1.02775,0.64153 0.67927,1.62572 -0.0884,1.6064 -0.90764,1.82064 l 0.11666,10.97362 c 0.0741,0 0.77953,-1.18718 1.51249,-2.41829 l 1.33262,-2.23839 3.6256,0.0384 c 0,0.102 -0.77262,1.42055 -1.71691,2.76519 -1.26487,1.8011 -1.63737,2.59323 -1.41475,3.00853 0.16619,0.31004 1.02195,1.72908 1.90168,3.15343 l 1.5995,2.58971 -3.68013,0.0361 c -0.25484,-0.0977 -1.05149,-1.31129 -1.77035,-2.69668 l -1.30699,-2.51889 -0.005,2.77145 -0.0372,2.64423 h -3.4239 v -8.97767 l -0.15902,-9.04126 h 1.55639 c 0.65278,0 1.0582,-0.0403 1.27652,-0.16971 0.2183,-0.12946 0.2495,-0.34809 0.15389,-0.70488 -0.11453,-0.42731 -0.56243,-0.95116 -0.56503,-1.28351 -0.007,-0.93373 -0.61989,-0.71578 -1.21324,0.43162 -0.59275,1.14624 -1.55676,1.34652 -2.28099,0.47386 -0.40517,-0.48818 -0.32001,-0.68425 0.64831,-1.49265 0.61311,-0.51184 1.11495,-0.997 1.11519,-1.07812 2.5e-4,-0.0811 -0.66012,-0.14751 -1.4675,-0.14751 -1.22647,0 -1.46796,-0.11107 -1.46796,-0.67501 0,-0.42663 0.30276,-0.7465 0.82275,-0.86926 0.74419,-0.17566 0.76892,-0.23889 0.25897,-0.6621 -0.69496,-0.57677 -0.71576,-0.94171 -0.0679,-1.19034 0.27274,-0.10467 0.89428,0.12307 1.38117,0.50607 0.48691,0.383 0.88528,0.62692 0.88528,0.54205 0,-0.0848 -0.23308,-0.81489 -0.51795,-1.62229 -1.01348,-2.87251 -0.44922,-4.8061 1.66146,-5.69358 l 1.05492,-0.44355 -2.00515,-0.91719 c -2.05845,-0.94155 -3.0762,-0.93969 -1.72991,0.004 0.41584,0.29128 0.84604,0.84151 0.84604,1.22275 0,0.38679 -0.80122,1.45608 -1.8128,2.41932 -1.13585,1.08159 -1.65161,1.79323 -1.38117,1.90575 0.23738,0.0988 0.43161,0.41083 0.43161,0.69346 0,0.35732 -0.28931,0.48005 -0.94956,0.40285 -0.87044,-0.10173 -0.94956,-0.0139 -0.94956,1.05572 0,1.35995 -0.91171,2.20319 -1.6182,1.4967 -0.32858,-0.32858 -0.3378,-0.66947 -0.0395,-1.45975 0.21405,-0.56708 0.31753,-1.03106 0.22996,-1.03106 -0.0876,0 -0.51572,0.41447 -0.95147,0.92106 -0.53706,0.62437 -0.98443,0.84732 -1.38884,0.69213 -0.82684,-0.31729 -0.57104,-1.67145 0.40755,-2.15737 1.38651,-0.68851 1.32459,-0.92182 -0.17878,-0.67345 -1.31417,0.21711 -1.46749,0.17098 -1.46749,-0.44156 0,-0.71457 0.62272,-1.10317 1.76779,-1.10317 0.52888,0 0.65385,-0.20333 0.57601,-0.93729 -0.0705,-0.66582 0.0756,-0.97318 0.50488,-1.06121 0.45346,-0.0929 0.60427,0.10227 0.60427,0.78222 v 0.90613 l 1.20277,-0.91741 1.20279,-0.9174 -1.25961,-0.8548 c -0.99363,-0.67431 -1.31846,-0.75772 -1.53824,-0.39503 -1.0428,1.72081 -2.05363,2.31151 -5.50853,3.21895 -1.78723,0.46941 -4.15,0.8564 -5.25063,0.85996 -1.66927,0.005 -2.14171,-0.13409 -2.84869,-0.84107 -0.54917,-0.54917 -0.84754,-1.23925 -0.84754,-1.96023 0,-1.4903 2.3904,-6.35275 4.03164,-8.20101 0.66787,-0.75212 1.60028,-1.41973 2.45107,-1.83421 0.4254,-0.20725 0.58687,0.0568 0.92819,-0.003 0.78392,-0.64879 0.97171,-0.24834 1.4076,0.1132 0.11307,-0.12786 0.76137,-0.39281 1.11153,0.008 0.25314,0.28974 0.52577,-0.21314 0.94386,-0.66404 0.47637,-0.51375 0.86613,-1.2612 0.86613,-1.66101 0,-0.99136 1.04502,-1.85871 2.52978,-2.09965 1.16809,-0.18956 1.22324,-0.25816 1.02911,-1.28009 -0.1128,-0.59389 -0.24043,-1.12447 -0.28356,-1.17907 -0.0431,-0.0545 -0.47706,0.0824 -0.96427,0.30437 -1.03831,0.47309 -1.96576,0.21445 -1.96576,-0.5482 0,-0.32089 0.41736,-0.62089 1.03588,-0.7446 1.03767,-0.207516 1.45461,-0.811436 0.56023,-0.811436 -0.26162,0 -0.6691,-0.23306 -0.90553,-0.51793 -0.34293,-0.41323 -0.34293,-0.62267 0,-1.0359 0.23643,-0.28486 0.55993,-0.51793 0.7189,-0.51793 0.15897,0 0.68475,0.42675 1.16837,0.94832 l 0.87934,0.94832 -0.4213,-1.11615 c -0.33332,-0.88308 -0.33178,-1.20565 0.007,-1.54482 0.635,-0.635 1.62131,0.12706 1.60459,1.2397 -0.008,0.49819 0.0717,0.9058 0.17592,0.9058 0.10427,0 0.38359,-0.31076 0.6208,-0.69058 0.51989,-0.83248 1.64959,-0.90722 1.94827,-0.12894 0.24847,0.64748 -0.34971,1.51006 -1.04719,1.51006 -0.26161,0 -0.47565,0.15356 -0.47565,0.34123 0,0.18768 0.3496,0.30421 0.7769,0.25897 0.57414,-0.0608 0.77693,0.098 0.77693,0.608326 0,0.54192 -0.19508,0.66791 -0.90619,0.58524 l -0.90618,-0.10533 0.85838,1.73444 c 0.84395,1.70531 1.04961,1.29383 1.77443,1.26075 0.24716,-0.0107 0.32562,-0.41489 0.56341,-0.48325 0.27193,-0.0781 0.5574,0.14881 0.83943,0.126 0.31129,-0.0251 0.57995,-0.28635 0.89224,-0.28579 0.34212,6.1e-4 0.63632,0.27855 0.97632,0.3166 0.37371,0.0419 0.75445,-0.17456 1.12345,-0.10213 0.35074,0.0688 0.6073,0.39888 0.95202,0.49329 0.38429,0.1052 0.82092,-0.0739 1.19345,0.0676 0.32975,0.1252 0.51123,0.50538 0.83007,0.65614 0.31567,0.14926 0.7163,0.0571 1.0235,0.223 0.29197,0.15772 0.42509,0.52806 0.71052,0.69736 0.25298,0.15005 0.6191,0.0672 0.84438,0.25628 0.15838,0.13293 0.14307,0.39869 0.28019,0.55349 0.25012,0.28235 0.68795,0.34904 0.94058,0.62913 0.25804,0.2861 0.3416,0.6917 0.54041,1.02171 0.10293,0.1708 0.23911,0.32055 0.33672,0.49442 0.08,0.1425 0.0475,0.3942 0.20225,0.44662 0.55015,0.18634 0.39814,0.45786 1.53551,-0.82381 1.01867,-1.14791 1.4603,-1.41748 2.02731,-1.23752 0.39871,0.12653 1.5393,1.09115 2.53462,2.14357 l 1.80971,1.91349 -0.22635,-1.20651 c -0.13693,-0.72995 -0.0797,-1.29707 0.14468,-1.4358 0.60213,-0.37215 1.37664,0.52741 1.37664,1.5989 0,0.54649 0.12133,0.99361 0.2696,0.99361 0.14827,0 0.45139,-0.48164 0.67359,-1.07033 0.49268,-1.30524 1.30123,-1.16502 1.30123,0.22567 0,0.71671 -0.24263,1.11966 -0.86323,1.43363 -0.90632,0.45852 -0.75391,0.55692 0.71815,0.46364 0.48993,-0.0311 1.10148,0.1974 1.35897,0.50767 0.39547,0.47651 0.39119,0.61277 -0.0276,0.87739 -0.27265,0.1723 -1.00073,0.22086 -1.61795,0.10786 -0.61721,-0.11293 -1.12122,-0.0715 -1.12002,0.092 0.001,0.16358 0.47886,0.56871 1.06146,0.9003 0.67435,0.3838 1.01734,0.82297 0.94386,1.20853 -0.16996,0.8917 -1.54032,0.96408 -2.07399,0.1096 -0.63042,-1.00944 -1.01758,-0.88412 -0.60676,0.1964 0.19004,0.49987 0.25341,1.1991 0.14082,1.55383 -0.41712,1.31422 -1.88465,0.45756 -1.88465,-1.10012 0,-0.9147 -1.3701,-2.74372 -2.05528,-2.74372 -0.19898,0 -0.18187,0.47125 -0.18187,0.82733 0,0.35608 -0.26509,0.91424 -0.3692,1.46024 -0.17272,0.90579 0.0348,1.16444 2.36946,2.95378 6.97726,5.34743 10.07062,13.62577 8.38446,22.43818 -0.9959,5.20477 -3.47294,9.57092 -7.18608,12.66645 -2.9496,2.459 -7.28119,4.38673 -11.66562,5.19168 -2.94077,0.5399 -7.23921,0.71156 -9.20516,0.36763 z m 16.48781,-19.74789 c -3.3343,0.54558 -1.73622,6.67087 0.21876,6.36308 2.60548,-0.41021 2.59111,-6.82287 -0.21876,-6.36308 z m -30.07212,1.44348 c 0,-1.27654 -0.65092,-2.04907 -1.72647,-2.04907 -1.07556,0 -1.72648,0.77253 -1.72648,2.04907 0,0.62575 0.25687,0.55587 1.77146,0.55587 1.5146,0 1.68149,0.0699 1.68149,-0.55587 z m 0.48971,-21.94047 c 0.8646,-0.33178 0.63481,-0.74748 -0.31303,-0.56628 -0.47257,0.0904 -0.77416,0.30187 -0.67021,0.47006 0.2243,0.36294 0.2752,0.36792 0.98324,0.0963 z m -3.26305,-6.47962 c 0.007,-0.16568 -0.22209,-0.10787 -0.50696,0.12867 -0.28486,0.23643 -0.51794,0.6736 -0.51794,0.97152 0,0.43361 0.10106,0.40796 0.50696,-0.12867 0.27884,-0.36865 0.5119,-0.80582 0.51794,-0.97152 z m -12.22408,35.86115 c -2.606493,-0.99832 -3.760033,-2.74452 -3.760033,-5.6919 0,-2.89283 1.56116,-4.93735 4.102133,-5.99903 1.90425,-0.47798 6.99343,-0.20396 6.99792,0.41249 l -0.13888,2.16151 c -0.32376,-0.12427 -2.42176,-0.38125 -3.20547,-0.48867 -3.43581,-0.47093 -5.642023,2.84609 -4.015,5.99238 0.64589,1.24902 1.67992,1.78318 3.2722,1.78318 l 1.62839,-0.12947 0.0228,-2.78611 c -0.36169,-0.18141 -2.31199,-0.0376 -2.81453,-0.0376 l -0.0361,-1.87401 5.16126,-0.19751 -0.0883,6.61909 c -0.003,0.20386 -1.84152,0.49365 -3.23484,0.5867 -1.7792,0.1188 -2.93767,0.0144 -3.89162,-0.35105 z m 22.9392,0.12267 c -2.43873,-0.69847 -3.79824,-2.78062 -3.79824,-5.81724 0,-4.19747 4.37432,-6.91604 8.26379,-5.86871 -0.003,0.79705 -0.005,1.79702 -0.008,2.67786 -1.12352,-0.42716 -3.31481,-0.0107 -3.94765,0.89274 -0.74256,1.06017 -0.65679,3.76952 0.15089,4.76592 0.55109,0.67988 0.95225,0.8065 2.41706,0.76301 l 1.75629,-0.0521 -0.004,2.457 c -0.66121,0.38051 -3.74319,0.49273 -4.82958,0.18157 z" />

		<path style="fill:none;" d="M 159.64934,128 A 31.64934,31.64934 0 0 1 128,159.64934 31.64934,31.64934 0 0 1 96.35066,128 31.64934,31.64934 0 0 1 128,96.35066 31.64934,31.64934 0 0 1 159.64934,128 Z m -44.10804,7.19303 -14.09542,-24.41399 m 39.01282,24.41399 -14.09528,24.41373 M 128,113.61394 h 28.1905 M 142.38606,128 A 14.386063,14.386063 0 0 1 128,142.38606 14.386063,14.386063 0 0 1 113.61394,128 14.386063,14.386063 0 0 1 128,113.61394 14.386063,14.386063 0 0 1 142.38606,128 Z" />
		<path style="fill:url(#pat);stroke:none;" d="m 142.38606,128 c 0,7.9452 -6.44086,14.38606 -14.38606,14.38606 -7.9452,0 -14.38606,-6.44086 -14.38606,-14.38606 0,-7.9452 6.44086,-14.38606 14.38606,-14.38606 7.9452,0 14.38606,6.44086 14.38606,14.38606 z" />

		<path style="fill:none;" d="m 180.96165,123.40791 c -1.25071,1.34246 -1.93064,2.96163 -1.93064,4.66273 0,2.11816 1.05205,4.11068 2.95058,5.59817 l 18.83356,14.80157 h 4.3e-4 c 1.92465,1.4875 4.46473,2.31984 7.18442,2.31984 2.7197,0 5.25978,-0.83261 7.18443,-2.34459 l 18.83398,-14.80242 c 1.899,-1.4875 2.95058,-3.48001 2.95058,-5.59818 0,-1.7012 -0.67979,-3.31992 -1.93064,-4.66272 h -1e-5 m -54.14497,9.27552 c -2.81185,3.13683 -2.43789,7.51994 1.12663,10.29973 l 18.74991,14.71153 c 3.98569,3.10788 10.47405,3.10788 14.45974,0 l 18.74991,-14.73756 c 3.5636,-2.80064 3.93844,-7.18337 1.12962,-10.30187 M 207.99999,96 c -2.71969,0 -5.28541,0.832345 -7.18442,2.31984 l -18.83398,14.82718 c -1.89877,1.48749 -2.95058,3.47958 -2.95058,5.59774 0,2.11817 1.05205,4.11025 2.95058,5.59775 l 18.83356,14.80157 4.3e-4,4.4e-4 c 1.92465,1.48749 4.46473,2.31984 7.18442,2.31984 2.7197,0 5.25978,-0.83262 7.18443,-2.3446 l 18.83398,-14.80242 c 1.899,-1.48749 2.95058,-3.48001 2.95058,-5.59817 0,-2.11817 -1.05158,-4.10909 -2.95058,-5.59775 l -18.834,-14.80158 C 213.25977,96.832112 210.71968,96 207.99999,96 Z m 0.0649,6.97574 c 10.61414,0 19.21977,7.03389 19.21977,15.71056 0,8.6755 -8.60563,15.7097 -19.21977,15.7097 -10.61531,0 -19.21934,-7.0342 -19.21934,-15.7097 0,-8.67667 8.60403,-15.71056 19.21934,-15.71056 z m 0,1.46633 c -9.62442,-2.4e-4 -17.42526,6.37659 -17.42526,14.24423 0,7.86647 7.80084,14.24337 17.42526,14.24337 9.62325,0 17.42569,-6.3769 17.42569,-14.24337 0,-7.86764 -7.80244,-14.24423 -17.42569,-14.24423 z m 3.39142,1.79792 -0.84625,12.91531 -5.91184,11.99993 0.72975,-12.93964 z m -12.93537,4.97297 5.48039,2.25455 c 0,0 1.19247,-0.6029 2.78372,-0.81041 l -0.92776,1.85596 c -0.17603,0.0256 -1.35493,0.51993 -1.87602,0.98623 -2.24056,1.77544 -2.25776,4.60247 -0.0358,6.36975 l -0.11309,2.12865 -5.31139,2.18328 2.87377,-4.30383 c -1.51198,-1.94796 -1.51198,-4.41355 0,-6.36035 z m 19.0751,0 -2.87334,4.30383 c 1.51197,1.9468 1.51197,4.41239 0,6.36035 l 2.87334,4.30383 -5.48466,-2.25455 c -0.86032,0.41034 -1.79862,0.67981 -2.76153,0.80571 l 0.91283,-1.85254 c 0.67497,-0.22382 1.31828,-0.53858 1.879,-0.98623 2.19627,-1.71132 2.25006,-4.51001 0.13656,-6.28311 l 0.14809,-2.27333 z" />
		<path style="fill:url(#pat);stroke:none;" d="m 207.99999,96 c -2.71969,0 -5.28541,0.832345 -7.18442,2.31984 l -18.83398,14.82718 c -1.89877,1.48749 -2.95058,3.47958 -2.95058,5.59774 0,1.70122 0.67989,3.32065 1.93064,4.66315 -1.25071,1.34246 -1.93064,2.96163 -1.93064,4.66273 0,1.66946 0.65595,3.25964 1.86236,4.58719 -2.81185,3.13683 -2.43789,7.51994 1.12663,10.29973 l 18.74991,14.71153 c 3.98569,3.10788 10.47405,3.10788 14.45974,0 l 18.74991,-14.73756 c 3.56361,-2.80064 3.93844,-7.18337 1.12962,-10.30187 1.20491,-1.32698 1.8598,-2.91632 1.8598,-4.58463 0,-1.7012 -0.67979,-3.31992 -1.93064,-4.66272 1.25083,-1.34249 1.93064,-2.96154 1.93064,-4.66273 0,-2.11816 -1.05158,-4.10951 -2.95059,-5.59817 L 215.18441,98.31984 C 213.25977,96.832112 210.71968,96 207.99999,96 Z m 0.0649,6.97574 c 10.61414,0 19.21977,7.03389 19.21977,15.71056 0,8.6755 -8.60563,15.7097 -19.21977,15.7097 -10.61531,0 -19.21934,-7.0342 -19.21934,-15.7097 0,-8.67667 8.60403,-15.71056 19.21934,-15.71056 z m 0,1.46633 c -9.62442,-2.4e-4 -17.42526,6.37659 -17.42526,14.24423 0,7.86647 7.80084,14.24337 17.42526,14.24337 9.62325,0 17.42569,-6.3769 17.42569,-14.24337 0,-7.86764 -7.80244,-14.24423 -17.42569,-14.24423 z m 3.39142,1.79792 -0.84625,12.91531 -5.91184,11.99993 0.72975,-12.93964 z m -12.93537,4.97297 5.48039,2.25455 c 0,0 1.19247,-0.6029 2.78372,-0.81041 l -0.92776,1.85596 c -0.17603,0.0256 -1.35493,0.51993 -1.87602,0.98623 -2.24056,1.77544 -2.25776,4.60247 -0.0358,6.36975 l -0.11309,2.12865 -5.31139,2.18328 2.87377,-4.30383 c -1.51198,-1.94796 -1.51198,-4.41355 0,-6.36035 z m 19.0751,0 -2.87334,4.30383 c 1.51197,1.9468 1.51197,4.41239 0,6.36035 l 2.87334,4.30383 -5.48466,-2.25455 c -0.86032,0.41034 -1.79862,0.67981 -2.76153,0.80571 l 0.91283,-1.85254 c 0.67497,-0.22382 1.31828,-0.53858 1.879,-0.98623 2.19627,-1.71132 2.25006,-4.51001 0.13656,-6.28311 l 0.14809,-2.27333 z" />


		<path style="fill:none;" d="M 8,72 h 240" />
		<path style="fill:none;" d="M 8,184 h 240" />
		<rect style="fill:none;" width="240" height="240" x="8" y="8" ry="4" />
	</g>
</svg>
